<svg width="217" height="45" viewBox="0 0 217 45" fill="none" xmlns="http://www.w3.org/2000/svg">
<path d="M86.8708 20.5262H89.7625V37.7968H86.8708V20.5262ZM86.8708 20.5262H89.7625V37.7968H86.8708V20.5262ZM88.2852 17.4967C87.9394 17.4967 87.6172 17.4538 87.3188 17.367C87.02 17.2811 86.7657 17.1559 86.5567 16.9939C86.3467 16.8329 86.1818 16.6441 86.0615 16.4276C85.9408 16.211 85.8809 15.9739 85.8809 15.7145C85.8809 15.4443 85.9434 15.1911 86.0693 14.9531C86.1949 14.716 86.3652 14.5102 86.5802 14.3375C86.7948 14.1648 87.0489 14.0297 87.3426 13.9322C87.6353 13.8356 87.9499 13.7864 88.2852 13.7864C88.6208 13.7864 88.9323 13.8356 89.2204 13.9322C89.5088 14.0297 89.76 14.1648 89.975 14.3375C90.1897 14.5102 90.3599 14.716 90.4855 14.9531C90.6115 15.1911 90.6742 15.4443 90.6742 15.7145C90.6742 15.9739 90.6136 16.211 90.4937 16.4276C90.3727 16.6441 90.2081 16.8329 89.9984 16.9939C89.7887 17.1559 89.5372 17.2811 89.2439 17.367C88.9508 17.4538 88.6311 17.4967 88.2852 17.4967Z" fill="#4C82C3"/>
<path d="M108.649 26.4177H105.752C105.576 25.2942 105.173 24.3608 104.544 23.6164C103.915 22.874 102.905 22.5014 101.515 22.5014C99.6166 22.5014 98.2594 23.4526 97.4433 25.3532C96.9132 26.5872 96.6486 28.1096 96.6486 29.9194C96.6486 31.7413 97.0234 33.2749 97.774 34.5202C98.5243 35.7645 99.7051 36.3871 101.317 36.3871C102.552 36.3871 103.531 36.0004 104.255 35.2252C104.977 34.4518 105.477 33.392 105.752 32.0466H108.649C108.319 34.4546 107.491 36.2148 106.167 37.328C104.842 38.4412 103.148 38.9974 101.085 38.9974C98.7672 38.9974 96.9188 38.1313 95.5393 36.3955C94.1598 34.6606 93.4703 32.4932 93.4703 29.8932C93.4703 26.7061 94.2262 24.225 95.738 22.4508C97.2499 20.6766 99.1753 19.789 101.515 19.789C103.512 19.789 105.137 20.2862 106.39 21.2805C107.642 22.2757 108.396 23.9881 108.649 26.4177Z" fill="#4C82C3"/>
<path d="M123.263 28.8244C123.263 27.4344 123.064 26.2414 122.668 25.2426C121.916 23.3213 120.543 22.3612 118.547 22.3612C116.54 22.3612 115.167 23.3762 114.426 25.4053C114.029 26.4905 113.831 27.8696 113.831 29.54C113.831 30.8868 114.029 32.0312 114.426 32.9752C115.177 34.7769 116.551 35.6777 118.547 35.6777C119.899 35.6777 121.023 35.1059 121.919 33.9606C122.815 32.8152 123.263 31.1034 123.263 28.8244ZM111.046 20.2934H113.863V22.6048C114.443 21.8127 115.075 21.1996 115.762 20.7654C116.739 20.1144 117.887 19.789 119.207 19.789C121.16 19.789 122.818 20.546 124.181 22.0591C125.543 23.574 126.225 25.7362 126.225 28.5475C126.225 32.3459 125.243 35.0592 123.28 36.6865C122.034 37.7177 120.586 38.2337 118.934 38.2337C117.635 38.2337 116.546 37.946 115.666 37.3715C115.151 37.0452 114.577 36.4869 113.943 35.6939V44.5998H111.046V20.2934Z" fill="#4C82C3"/>
<path d="M143.401 26.4177H140.58C140.409 25.2942 140.016 24.3608 139.404 23.6164C138.791 22.874 137.808 22.5014 136.455 22.5014C134.606 22.5014 133.285 23.4526 132.49 25.3532C131.974 26.5872 131.716 28.1096 131.716 29.9194C131.716 31.7413 132.081 33.2749 132.812 34.5202C133.543 35.7645 134.692 36.3871 136.261 36.3871C137.465 36.3871 138.418 36.0004 139.122 35.2252C139.826 34.4518 140.312 33.392 140.58 32.0466H143.401C143.079 34.4546 142.273 36.2148 140.984 37.328C139.694 38.4412 138.045 38.9974 136.036 38.9974C133.779 38.9974 131.979 38.1313 130.636 36.3955C129.293 34.6606 128.622 32.4932 128.622 29.8932C128.622 26.7061 129.358 24.225 130.83 22.4508C132.302 20.6766 134.176 19.789 136.455 19.789C138.399 19.789 139.982 20.2862 141.201 21.2805C142.421 22.2757 143.154 23.9881 143.401 26.4177Z" fill="#4C82C3"/>
<path d="M4.39901 42.4726C4.30373 42.4726 4.21434 42.4859 4.13307 42.5123C4.05756 42.5367 3.99282 42.5702 3.94131 42.6114C3.89356 42.6492 3.85756 42.6916 3.83061 42.7421C3.80849 42.783 3.79828 42.8235 3.79828 42.8703C3.79828 42.9096 3.80618 42.9418 3.82327 42.9719C3.84757 43.0149 3.88088 43.0521 3.92555 43.0862C3.9736 43.1227 4.03578 43.1518 4.11074 43.1732C4.28387 43.2225 4.5135 43.2225 4.68238 43.1738C4.756 43.1522 4.81775 43.123 4.86606 43.0862C4.91078 43.0521 4.94434 43.0149 4.96831 42.9722C4.98552 42.9422 4.99363 42.9093 4.99363 42.8703C4.99363 42.8238 4.9833 42.783 4.9613 42.7421C4.93435 42.6919 4.89835 42.6495 4.85128 42.612C4.79854 42.5702 4.73435 42.5364 4.6594 42.5113C4.58145 42.4856 4.49361 42.4726 4.39901 42.4726ZM4.39901 43.9354C4.22813 43.9354 4.06499 43.9135 3.9141 43.8707C3.75186 43.8246 3.60896 43.7549 3.48937 43.6635C3.36723 43.5706 3.26828 43.4585 3.19577 43.3302C3.11662 43.1906 3.0764 43.0357 3.0764 42.8703C3.0764 42.7034 3.11637 42.5445 3.19521 42.398C3.26905 42.2605 3.36967 42.1406 3.49415 42.0424C3.61207 41.9486 3.75242 41.8742 3.91031 41.8228C4.21814 41.7228 4.5829 41.7231 4.88592 41.8234C5.04181 41.8752 5.18052 41.9489 5.29887 42.043C5.42259 42.1412 5.52317 42.2608 5.59679 42.398C5.67563 42.5451 5.71551 42.704 5.71551 42.8703C5.71551 43.0351 5.67529 43.1896 5.59624 43.3299C5.52385 43.4579 5.42514 43.57 5.30254 43.6635C5.18295 43.7546 5.04172 43.8239 4.88247 43.8701C4.73324 43.9135 4.57044 43.9354 4.39901 43.9354Z" fill="#4C82C3"/>
<path d="M1.08206 43.7573C1.00411 43.7573 0.930977 43.7686 0.864484 43.7909C0.80271 43.8117 0.749742 43.8401 0.707601 43.8751C0.668538 43.9072 0.63909 43.9433 0.617035 43.9862C0.598941 44.0209 0.590589 44.0554 0.590589 44.0951C0.590589 44.1285 0.597049 44.1559 0.611029 44.1814C0.630914 44.218 0.658167 44.2496 0.694706 44.2785C0.734022 44.3096 0.784894 44.3343 0.846214 44.3525C0.987855 44.3943 1.17573 44.3943 1.31389 44.353C1.37412 44.3346 1.42464 44.3098 1.46416 44.2785C1.50075 44.2496 1.5282 44.218 1.54781 44.1817C1.56189 44.1562 1.56853 44.1283 1.56853 44.0951C1.56853 44.0556 1.56007 44.0209 1.54208 43.9862C1.52003 43.9436 1.49058 43.9075 1.45207 43.8757C1.40892 43.8401 1.35641 43.8115 1.29509 43.7901C1.23132 43.7683 1.15945 43.7573 1.08206 43.7573ZM1.08206 45C0.942257 45 0.808791 44.9813 0.685344 44.945C0.552611 44.9058 0.435699 44.8466 0.337865 44.769C0.237937 44.69 0.156984 44.5948 0.0976578 44.4859C0.0329061 44.3672 0 44.2356 0 44.0951C0 43.9533 0.032704 43.8183 0.0972034 43.6939C0.157615 43.577 0.23993 43.4752 0.341776 43.3918C0.438248 43.3121 0.553065 43.2489 0.682241 43.2052C0.934081 43.1202 1.2325 43.1205 1.48041 43.2058C1.60794 43.2497 1.72142 43.3123 1.81825 43.3923C1.91946 43.4757 2.00175 43.5773 2.06199 43.6939C2.12649 43.8188 2.15912 43.9538 2.15912 44.0951C2.15912 44.2351 2.12621 44.3664 2.06153 44.4856C2.00231 44.5943 1.92156 44.6895 1.82125 44.769C1.72342 44.8463 1.60787 44.9053 1.47758 44.9445C1.3555 44.9813 1.22231 45 1.08206 45Z" fill="#4C82C3"/>
<path d="M8.39122 41.5512C8.26933 41.5512 8.15462 41.5685 8.05002 41.6023C7.95073 41.6348 7.86545 41.6791 7.79694 41.7336C7.73177 41.785 7.68248 41.8436 7.64537 41.9126C7.61363 41.9721 7.59809 42.0338 7.59809 42.101C7.59809 42.161 7.61061 42.2118 7.63782 42.2595C7.67159 42.319 7.71801 42.371 7.77973 42.4181C7.84404 42.4671 7.92677 42.5061 8.02547 42.5343C8.24678 42.5971 8.53638 42.5975 8.75099 42.5349L8.75167 42.5346C8.84828 42.5067 8.93032 42.4674 8.99519 42.4181C9.05691 42.3707 9.10345 42.319 9.13711 42.2595C9.16406 42.2118 9.17683 42.161 9.17683 42.101C9.17683 42.0334 9.16129 41.9718 9.12933 41.9123C9.09257 41.8436 9.04328 41.7854 8.97853 41.7342C8.90892 41.6788 8.82428 41.6342 8.72626 41.6017C8.6253 41.5682 8.5125 41.5512 8.39122 41.5512ZM8.39122 43.3067C8.19246 43.3067 8.00314 43.2813 7.82859 43.2315C7.64294 43.1791 7.47937 43.0995 7.343 42.9951C7.20399 42.8892 7.09196 42.7619 7.01001 42.6173C6.9213 42.4602 6.8762 42.2865 6.8762 42.101C6.8762 41.9139 6.92105 41.7349 7.00967 41.5692C7.09363 41.4128 7.208 41.2768 7.34957 41.1647C7.4847 41.0572 7.6455 40.9723 7.82692 40.9132C8.1817 40.7976 8.60476 40.798 8.95309 40.9135C9.13199 40.9729 9.2909 41.0578 9.42612 41.1653C9.56748 41.2774 9.68163 41.4134 9.76513 41.5689C9.85362 41.7346 9.89859 41.9133 9.89859 42.101C9.89859 42.2862 9.85362 42.4599 9.76501 42.617C9.68308 42.7616 9.57115 42.8889 9.43189 42.9951C9.29577 43.0989 9.13421 43.1782 8.95176 43.2312C8.77931 43.2813 8.59079 43.3067 8.39122 43.3067Z" fill="#4C82C3"/>
<path d="M12.833 40.6007C12.6793 40.6007 12.5341 40.6224 12.4016 40.6657C12.2739 40.7075 12.164 40.7645 12.0748 40.8355C11.9892 40.9033 11.9238 40.981 11.8746 41.0724C11.8306 41.1548 11.8092 41.24 11.8092 41.3332C11.8092 41.4171 11.8278 41.4911 11.8661 41.5587C11.9116 41.6392 11.9735 41.7086 12.0557 41.7715C12.1401 41.8356 12.2475 41.8867 12.3747 41.9226C12.6519 42.0019 13.0155 42.0019 13.2848 41.9235C13.4094 41.8876 13.5165 41.8359 13.602 41.7708C13.6838 41.7083 13.7459 41.6389 13.7908 41.559C13.8293 41.4911 13.848 41.4171 13.848 41.3332C13.848 41.24 13.8266 41.1548 13.7825 41.0724C13.7336 40.981 13.6679 40.9033 13.5821 40.8351C13.4928 40.7642 13.3837 40.7069 13.2579 40.6651C13.1294 40.6224 12.9861 40.6007 12.833 40.6007ZM12.833 42.7071C12.6005 42.7071 12.3801 42.678 12.1776 42.6201C11.9638 42.5594 11.7757 42.4677 11.6192 42.3488C11.4592 42.2267 11.3312 42.0812 11.2383 41.9164C11.1383 41.7399 11.0874 41.5432 11.0874 41.3332C11.0874 41.1201 11.1383 40.9169 11.2389 40.7292C11.3344 40.5508 11.4652 40.3953 11.6273 40.2665C11.7835 40.1426 11.9688 40.045 12.1782 39.9766C12.5891 39.8425 13.0809 39.8428 13.4851 39.9769C13.6912 40.0457 13.8745 40.1432 14.0299 40.2665C14.1924 40.3956 14.323 40.5511 14.4182 40.7292C14.5188 40.9169 14.5699 41.1201 14.5699 41.3332C14.5699 41.5426 14.5192 41.7386 14.419 41.9164C14.3261 42.0812 14.1981 42.2261 14.0385 42.3482C13.8813 42.4677 13.6955 42.5591 13.4853 42.6198C13.2855 42.678 13.066 42.7071 12.833 42.7071Z" fill="#4C82C3"/>
<path d="M15.2913 28.8225C15.1826 28.9312 15.0174 28.959 14.8794 28.8918C14.7414 28.8249 14.6607 28.6772 14.6781 28.5245C14.7259 28.1054 14.6179 27.8196 14.348 27.6508C13.8491 27.3395 12.8321 27.4606 12.127 27.9153C11.8737 28.0791 11.4574 28.4195 11.5148 28.8643C11.5404 29.0628 11.4009 29.2443 11.2032 29.27C11.0056 29.2951 10.8245 29.156 10.7988 28.9575C10.6215 27.5811 9.88443 27.1487 9.29724 27.0285C8.32786 26.83 7.17125 27.3537 6.66435 28.2207C6.23407 28.9563 6.37266 29.8003 7.05444 30.5969C7.13717 30.6938 7.16326 30.8273 7.12307 30.9481C7.08298 31.0692 6.98239 31.1599 6.85837 31.1872C4.30833 31.7509 3.5085 32.956 3.61032 33.896C3.73058 35.0067 5.15689 36.188 7.56322 36.188C7.65961 36.188 7.75199 36.2264 7.81985 36.2955C7.88758 36.3642 7.92512 36.4575 7.9241 36.5541C7.9188 37.0379 8.07734 37.4173 8.29609 37.7112H19.1102C20.679 37.7112 21.9625 36.4222 21.9625 34.8469V28.4012C20.2468 26.9929 17.4443 26.6708 15.2913 28.8225Z" fill="#4C82C3"/>
<path d="M2.89259 33.9741C2.76533 32.7993 3.57605 31.3396 6.16782 30.613C5.58819 29.6993 5.53702 28.7168 6.04179 27.8536C6.70636 26.7176 8.16901 26.0576 9.44141 26.3183C10.2413 26.4822 10.8522 26.9886 11.2068 27.7551C11.3496 27.5922 11.527 27.4408 11.7365 27.3057C12.5534 26.7783 13.8797 26.5042 14.7294 27.0354C15.0255 27.2206 15.2295 27.4869 15.3325 27.8146C17.5148 26.0634 20.1363 26.2892 21.9624 27.5027V23.2192C21.9624 21.6441 20.6789 20.3552 19.1101 20.3552H3.00539C1.43664 20.3552 0.153108 21.6441 0.153108 23.2192V34.8469C0.153108 36.4222 1.43664 37.7109 3.00539 37.7109H7.45579C7.33652 37.4597 7.25404 37.1915 7.22082 36.9056C4.57396 36.7926 3.04438 35.3753 2.89259 33.9741Z" fill="#4C82C3"/>
<path d="M23.2895 33.0911C24.6558 31.3575 24.0368 29.3812 22.758 28.1414C22.5157 27.9066 22.2486 27.6929 21.9624 27.5027L21.9625 28.4012C22.0644 28.4849 22.1628 28.5719 22.2567 28.6629C23.2684 29.6441 23.9473 31.3334 22.5311 32.8659C22.4645 32.9377 22.4299 33.0341 22.4353 33.1322C22.4406 33.2301 22.4855 33.3221 22.5595 33.3865C23.6287 34.3157 23.6898 36.1102 22.7016 37.5607C21.4021 39.468 18.3402 40.617 13.6433 38.1216C13.5902 38.0934 13.5322 38.0795 13.4745 38.0795C13.3972 38.0795 13.3201 38.1046 13.2561 38.1535C12.2055 38.9551 10.4551 39.0759 9.18466 38.4344C8.92273 38.3022 8.564 38.0711 8.29609 37.7112L7.45579 37.7109C7.72327 38.2752 8.1964 38.7466 8.86042 39.0817C10.2869 39.8025 12.236 39.7009 13.5027 38.8652C15.4541 39.8709 17.1503 40.2813 18.5808 40.2813C20.821 40.281 22.4086 39.2744 23.2974 37.9698C24.4118 36.3342 24.3884 34.3067 23.2895 33.0911Z" fill="#4C82C3"/>
<path d="M35.5301 25.7119C35.6467 25.7621 35.7336 25.8733 35.7494 26L36.1368 29.1734H37.5023V25.4403C37.5023 25.3288 37.5538 25.2235 37.6423 25.1554L38.2823 24.6632L36.3826 24.0964C36.2392 24.0537 36.1374 23.9258 36.1278 23.7759C36.1183 23.6256 36.2025 23.4853 36.3394 23.4246L38.1469 22.6197L36.5621 22.1535C36.4437 22.1186 36.3518 22.0252 36.3185 21.9057C36.2851 21.7865 36.3157 21.6584 36.399 21.567L37.5023 20.3553H31.8716C31.9617 22.6948 33.375 24.7806 35.5301 25.7119Z" fill="#FDBA11"/>
<path d="M39.2842 22.2064C39.4279 22.2489 39.5303 22.3768 39.5402 22.5271C39.55 22.6772 39.4655 22.8179 39.3286 22.8789L37.5158 23.686L39.1583 24.1757C39.2869 24.2141 39.3835 24.3219 39.4079 24.4545C39.4322 24.5873 39.3804 24.7227 39.274 24.8048L38.2169 25.6175V29.1734H39.7104L40.0941 26.0096C40.1096 25.8826 40.1916 25.7658 40.3088 25.7157C42.4692 24.7859 43.8855 22.6986 43.9756 20.3553H38.4708L37.3129 21.6267L39.2842 22.2064Z" fill="#FDBA11"/>
<path d="M40.0732 31.427H35.7741C35.5767 31.427 35.417 31.2662 35.417 31.068C35.417 30.8698 35.5767 30.7093 35.7741 30.7093H40.0732C40.2707 30.7093 40.4304 30.8698 40.4304 31.068C40.4304 31.2662 40.2707 31.427 40.0732 31.427ZM40.0732 32.8142H35.7741C35.5767 32.8142 35.417 32.6538 35.417 32.4556C35.417 32.2573 35.5767 32.0966 35.7741 32.0966H40.0732C40.2707 32.0966 40.4304 32.2573 40.4304 32.4556C40.4304 32.6538 40.2707 32.8142 40.0732 32.8142ZM40.0732 34.2018H35.7741C35.5767 34.2018 35.417 34.0413 35.417 33.8428C35.417 33.6449 35.5767 33.4841 35.7741 33.4841H40.0732C40.2707 33.4841 40.4304 33.6449 40.4304 33.8428C40.4304 34.0413 40.2707 34.2018 40.0732 34.2018ZM38.6917 35.589H37.1557C36.9583 35.589 36.7985 35.4286 36.7985 35.2304C36.7985 35.0322 36.9583 34.8714 37.1557 34.8714H38.6917C38.8891 34.8714 39.0489 35.0322 39.0489 35.2304C39.0489 35.4286 38.8891 35.589 38.6917 35.589ZM46.0028 20.3553H44.6907C44.6025 22.917 43.0966 25.2083 40.7802 26.2899L40.3814 29.5757C40.3595 29.7557 40.2074 29.891 40.0267 29.891H35.8204C35.64 29.891 35.4879 29.756 35.466 29.5761L35.0644 26.288C32.7455 25.2 31.2449 22.9111 31.1567 20.3553H29.8983C28.3295 20.3553 27.0461 21.6441 27.0461 23.2193V34.8469C27.0461 36.4222 28.3295 37.7113 29.8983 37.7113H46.0028C47.5719 37.7113 48.8553 36.4222 48.8553 34.8469V23.2193C48.8553 21.6441 47.5719 20.3553 46.0028 20.3553Z" fill="#FDBA11"/>
<path d="M31.3896 17.6755C31.3421 17.6755 31.2943 17.6662 31.2477 17.6469L27.3792 16.0379C27.2364 15.9784 27.15 15.8396 27.15 15.6932C27.15 15.6458 27.159 15.5974 27.1784 15.5508C27.2568 15.3604 27.4739 15.2705 27.6636 15.349L31.5318 16.9581C31.6749 17.0175 31.7613 17.1563 31.761 17.3027C31.761 17.3501 31.752 17.3985 31.7329 17.4451C31.6737 17.5887 31.5352 17.6755 31.3896 17.6755Z" fill="#FDBA11"/>
<path d="M32.9226 15.3717C32.8279 15.3717 32.7325 15.3354 32.6601 15.2626L29.744 12.3345C29.6715 12.2617 29.6355 12.1665 29.6355 12.071C29.6355 11.9755 29.6715 11.8803 29.744 11.8074C29.889 11.6618 30.1243 11.6618 30.269 11.8074L33.185 14.7354C33.2578 14.8083 33.2939 14.9035 33.2939 14.999C33.2939 15.0945 33.2578 15.1897 33.185 15.2626C33.1129 15.3354 33.0176 15.3717 32.9226 15.3717Z" fill="#FDBA11"/>
<path d="M35.2168 13.833C35.0712 13.833 34.933 13.7462 34.8738 13.6026L33.3075 9.8059C33.2884 9.75929 33.2794 9.71088 33.2794 9.66349C33.2791 9.51699 33.3655 9.3783 33.5086 9.31886C33.6977 9.23979 33.9151 9.33011 33.9935 9.52068L35.5598 13.3174C35.5789 13.364 35.5881 13.4124 35.5881 13.4598C35.5881 13.6062 35.5018 13.7449 35.3587 13.8044C35.3124 13.8237 35.2643 13.833 35.2168 13.833Z" fill="#FDBA11"/>
<path d="M37.9228 13.2922C37.7177 13.2922 37.5514 13.1253 37.5514 12.9194V8.81408C37.5514 8.60811 37.7177 8.44133 37.9228 8.44133C38.1279 8.44133 38.2942 8.60811 38.2942 8.81408V12.9194C38.2942 13.1253 38.1279 13.2922 37.9228 13.2922Z" fill="#FDBA11"/>
<path d="M40.6283 13.833C40.5811 13.833 40.533 13.8237 40.4864 13.8044C40.3436 13.7449 40.2572 13.6061 40.2572 13.4598C40.2572 13.4124 40.2662 13.364 40.2856 13.3174L41.8615 9.49725C41.9398 9.30724 42.157 9.21636 42.3463 9.29544C42.4895 9.35487 42.5758 9.49357 42.5758 9.64007C42.5758 9.68745 42.5666 9.73586 42.5474 9.78235L40.9716 13.6026C40.9124 13.7462 40.7742 13.833 40.6283 13.833Z" fill="#FDBA11"/>
<path d="M42.9226 15.3717C42.8276 15.3717 42.7326 15.3354 42.6601 15.2626C42.5876 15.1897 42.5515 15.0945 42.5515 14.999C42.5515 14.9035 42.5876 14.8083 42.6601 14.7354L45.6098 11.7737C45.7547 11.628 45.9898 11.628 46.1347 11.7737C46.2072 11.8465 46.2433 11.9417 46.2433 12.0373C46.2433 12.1327 46.2072 12.2281 46.1347 12.3009L43.1851 15.2626C43.1126 15.3354 43.0176 15.3717 42.9226 15.3717Z" fill="#FDBA11"/>
<path d="M44.4558 17.6757C44.3099 17.6757 44.1718 17.589 44.1125 17.4454C44.0934 17.3988 44.0842 17.3504 44.0842 17.303C44.0842 17.1566 44.1705 17.0178 44.3136 16.9584L48.2398 15.3251C48.4302 15.2461 48.6464 15.3367 48.725 15.5269C48.7442 15.5735 48.7534 15.6217 48.7534 15.6693C48.7534 15.8157 48.667 15.9545 48.5239 16.014L44.5977 17.6472C44.5512 17.6665 44.503 17.6757 44.4558 17.6757Z" fill="#FDBA11"/>
<path d="M72.8954 20.3574H66.2515C66.6253 20.6973 67.0353 21.0038 67.4372 21.2589C67.4381 21.2594 67.4609 21.2741 67.4621 21.2749C70.3282 23.1353 71.6703 25.2043 71.4503 27.4241C71.1931 30.0276 68.8187 32.7321 64.3937 35.4636C62.9043 36.3828 61.4216 37.15 60.2488 37.7131H72.8954C74.4642 37.7131 75.7476 36.4243 75.7476 34.8491V23.2214C75.7476 21.6462 74.4642 20.3574 72.8954 20.3574Z" fill="#B22D1B"/>
<path d="M70.7324 27.3519C70.9227 25.4245 69.6908 23.5844 67.0705 21.8834C66.6994 21.6479 65.9104 21.1028 65.2362 20.3573H56.7906C55.2219 20.3573 53.9385 21.6462 53.9385 23.2214V34.8491C53.9385 36.4244 55.2219 37.7131 56.7906 37.7131H58.5164C61.3853 36.4457 70.258 32.153 70.7324 27.3519Z" fill="#B22D1B"/>
<path d="M65.2861 15.2598C65.2828 15.2609 65.2806 15.2637 65.2775 15.2649C65.2374 15.28 65.2016 15.3016 65.1702 15.3288C65.1662 15.3321 65.1622 15.3349 65.1585 15.3384C65.1245 15.3701 65.0971 15.4072 65.077 15.4498L65.0767 15.4506C65.0764 15.4512 65.0764 15.452 65.0761 15.4528C65.0653 15.4763 65.0551 15.5 65.0499 15.5259C65.0456 15.5453 65.0462 15.5647 65.0456 15.5841C65.0453 15.5881 65.0446 15.5919 65.0446 15.5961C65.0437 15.6435 65.0511 15.6897 65.0684 15.7333V15.7342L65.7405 17.4598H63.1477L63.8198 15.7342C63.8204 15.7321 63.8201 15.7297 63.8207 15.7277C63.8358 15.6876 63.8426 15.6452 63.8426 15.6019C63.8426 15.5927 63.8414 15.5841 63.8408 15.575C63.8395 15.5584 63.8405 15.5418 63.8371 15.5251C63.8321 15.5034 63.8229 15.4835 63.8146 15.4635C63.813 15.4593 63.8133 15.4545 63.8115 15.4506C63.8109 15.4488 63.809 15.4478 63.8084 15.446C63.789 15.4057 63.7627 15.3705 63.731 15.34C63.7257 15.3352 63.7205 15.3316 63.7149 15.327C63.6841 15.3008 63.6495 15.2797 63.611 15.265C63.6076 15.2638 63.6054 15.2609 63.602 15.2598C60.599 14.2124 58.117 10.6501 57.9513 7.15023C57.869 5.40499 58.4131 3.86362 59.5253 2.69243C60.7307 1.42321 62.4756 0.724104 64.4503 0.724104C66.4126 0.724104 68.1575 1.42321 69.3629 2.69243C70.4748 3.86362 71.0192 5.40499 70.9369 7.15023C70.7712 10.6501 68.2892 14.2124 65.2861 15.2598ZM68.4449 16.1107C68.5153 16.2465 68.4465 16.3419 68.3768 16.3985C68.1371 16.5927 67.3857 16.6889 66.1905 15.7826C67.5659 15.5139 68.2873 15.8052 68.4449 16.1107ZM60.5105 16.4003C60.4408 16.3442 60.3723 16.2484 60.442 16.1129C60.5558 15.8918 60.9655 15.6776 61.7042 15.6776C61.9861 15.6776 62.3161 15.7087 62.6961 15.7826C61.5018 16.6889 60.7508 16.5949 60.5105 16.4003ZM71.6583 7.18557C71.7505 5.23743 71.1377 3.51106 69.886 2.19312C68.5427 0.778955 66.6125 0 64.4382 0C62.2766 0 60.3467 0.778955 59.0034 2.19312C57.7518 3.51106 57.1386 5.23743 57.2311 7.18557C57.3736 10.2059 59.1305 13.2687 61.4969 14.9566C60.566 15.0015 60.021 15.3547 59.8017 15.7803C59.5882 16.1937 59.6919 16.6702 60.0589 16.9664C60.2711 17.1376 60.5796 17.2508 60.9688 17.2508C61.433 17.2508 62.0129 17.0878 62.6807 16.6714L62.2834 17.691C62.24 17.8028 62.2544 17.9287 62.3214 18.0274C62.3886 18.1264 62.5003 18.1855 62.6196 18.1855H64.111C64.202 18.9002 64.5875 19.6369 65.2362 20.3573L66.2534 20.3578C65.6618 19.8218 64.9851 19.0421 64.8386 18.1855H66.2698C66.3888 18.1855 66.5005 18.1264 66.5677 18.0274C66.635 17.9287 66.6492 17.8028 66.6057 17.691L66.209 16.6719C66.8753 17.0867 67.4542 17.2493 67.9181 17.2493C68.308 17.2493 68.6174 17.1358 68.8299 16.9638C69.1969 16.6676 69.2999 16.1909 69.0865 15.7777C68.8666 15.3526 68.3228 15.0002 67.3944 14.9553C69.7598 13.267 71.5155 10.2051 71.6583 7.18557Z" fill="#B22D1B"/>
<path d="M177.282 35.4964C177.344 35.4176 177.303 35.3018 177.254 35.2146C176.987 34.7471 176.514 34.4035 175.988 34.295C175.462 34.1866 174.893 34.3152 174.464 34.6392C174.889 34.7555 175.213 35.1757 175.218 35.6185C175.73 35.3144 176.385 35.2677 176.934 35.496C177.05 35.5441 177.205 35.5951 177.282 35.4964ZM173.898 34.5299C174.085 34.5144 174.199 34.3255 174.315 34.1769C174.648 33.7479 175.24 33.539 175.767 33.6637C175.39 33.3055 175.19 32.7662 175.244 32.2473C175.266 32.0358 175.32 31.7962 175.188 31.6303C175.064 31.476 174.815 31.4672 174.653 31.579C174.491 31.6908 174.409 31.8927 174.395 32.0899C174.38 32.2871 174.425 32.4832 174.47 32.6757C174.259 32.5989 173.999 32.7141 173.913 32.9215C173.828 33.129 173.931 33.3954 174.133 33.4905C173.988 33.5721 173.841 33.6555 173.727 33.7765C173.613 33.8975 173.535 34.0643 173.559 34.2292C173.583 34.3941 173.732 34.5435 173.898 34.5299ZM173.934 38.4973C174.059 38.9933 174.505 39.367 174.998 39.4971C175.491 39.6273 176.02 39.5425 176.496 39.3603C176.652 39.3003 176.813 39.2241 176.909 39.0867C177.006 38.9493 177.012 38.7348 176.882 38.6298C176.745 38.5205 176.549 38.5755 176.377 38.603C175.885 38.6819 175.357 38.4627 175.064 38.0579C174.874 38.4623 174.346 38.6674 173.934 38.4973ZM177.03 34.3266C177.171 34.4165 177.328 34.4995 177.495 34.4948C177.663 34.4902 177.838 34.3669 177.843 34.1987C177.849 34.0238 177.687 33.8986 177.562 33.7768C177.204 33.4286 177.062 32.8731 177.21 32.3952C176.773 32.4845 176.294 32.1835 176.182 31.7503C175.862 32.1481 175.831 32.7307 176.023 33.2047C176.214 33.6788 176.599 34.0531 177.03 34.3266ZM176.855 31.8577C177.073 31.7818 177.168 31.5275 177.212 31.2998C177.255 31.0721 177.287 30.8188 177.459 30.6638C177.677 30.4661 178.015 30.5174 178.303 30.5837C178.59 30.6499 178.925 30.7087 179.15 30.5174C179.33 30.3656 179.369 30.092 179.294 29.8675C178.681 29.5789 177.907 29.3321 176.935 29.1525C176.935 29.1525 176.404 30.1754 176.191 31.381C176.23 31.5018 176.287 31.6162 176.373 31.7092C176.494 31.8396 176.687 31.9154 176.855 31.8577ZM176.92 36.5152C177.01 36.3974 176.98 36.218 176.885 36.1043C176.789 35.9906 176.645 35.931 176.502 35.893C175.749 35.6931 174.885 36.0342 174.47 36.6957C174.67 37.1617 174.969 37.5845 175.342 37.9278C175.513 38.0863 175.706 38.2307 175.929 38.2988C176.152 38.3668 176.411 38.3482 176.595 38.2043C176.779 38.0604 176.858 37.7775 176.735 37.5785C176.654 37.4467 176.507 37.3735 176.388 37.2753C176.268 37.1772 176.167 37.0161 176.227 36.8733C176.332 36.6247 176.756 36.7293 176.92 36.5152ZM174.223 39.672C174.064 39.5314 173.901 39.3482 173.69 39.3601C173.493 39.3712 173.342 39.5697 173.338 39.7673C173.334 39.965 173.451 40.1494 173.602 40.2753C173.754 40.4013 173.939 40.4785 174.121 40.5539C173.937 40.6813 173.879 40.9611 173.997 41.1516C174.116 41.3421 174.392 41.4125 174.586 41.3019C174.568 41.4677 174.551 41.6365 174.583 41.8001C174.614 41.9637 174.704 42.1244 174.852 42.2004C175 42.2764 175.207 42.241 175.292 42.0978C175.389 41.9358 175.302 41.7328 175.248 41.5521C175.094 41.0301 175.268 40.4254 175.675 40.0661C175.165 40.1672 174.612 40.0171 174.223 39.672ZM179.992 29.5362C180.521 29.6567 180.961 30.1048 181.074 30.6374C181.235 30.1416 181.636 29.7307 182.127 29.5584C182.327 29.4881 182.565 29.4351 182.658 29.2441C182.745 29.0666 182.647 28.8366 182.477 28.7368C182.307 28.637 182.09 28.6485 181.907 28.7197C181.723 28.7909 181.565 28.915 181.411 29.0375C181.39 28.8137 181.176 28.6262 180.952 28.6368C180.729 28.6474 180.533 28.8544 180.533 29.0791C180.398 28.9822 180.26 28.8841 180.103 28.8319C179.945 28.7798 179.761 28.7798 179.623 28.872C179.485 28.9642 179.414 29.1634 179.497 29.3079C179.59 29.4714 179.809 29.4945 179.992 29.5362ZM185.903 41.969C185.626 42.0675 185.507 42.3879 185.42 42.6706C185.332 42.9533 185.206 43.2728 184.926 43.3625C184.706 43.4331 184.472 43.3332 184.254 43.2564C184.036 43.1796 183.77 43.1337 183.595 43.2848C183.46 43.4016 183.429 43.6069 183.48 43.7779C183.516 43.8995 183.586 44.0061 183.67 44.101C184.815 44.5236 185.962 44.578 185.962 44.578C186.297 43.6445 186.474 42.8488 186.535 42.1716C186.38 41.993 186.125 41.8894 185.903 41.969ZM188.651 39.3663C188.442 39.3297 188.259 39.4926 188.085 39.6138C187.658 39.9109 187.091 39.9953 186.597 39.8353C186.96 40.2397 187.062 40.8607 186.849 41.3611C186.8 41.475 186.736 41.5967 186.72 41.7156C186.778 41.2537 186.665 40.7702 186.402 40.3862C186.098 39.9423 185.598 39.6387 185.065 39.574C184.966 39.5619 184.844 39.5691 184.796 39.6573C184.736 39.7677 184.842 39.8908 184.932 39.9791C185.355 40.3982 185.568 41.0224 185.488 41.6141C185.896 41.4462 186.408 41.5816 186.68 41.9299C186.696 41.8662 186.708 41.8018 186.717 41.7369C186.712 41.7916 186.718 41.8457 186.741 41.898C186.809 42.0502 187.011 42.1095 187.167 42.0514C187.323 41.9931 187.43 41.844 187.481 41.6853C187.532 41.5265 187.534 41.3568 187.535 41.1901C187.716 41.3226 187.998 41.2849 188.137 41.1096C188.277 40.9343 188.252 40.6496 188.084 40.5016C188.274 40.4479 188.466 40.3928 188.631 40.2855C188.797 40.1781 188.933 40.0086 188.953 39.8119C188.972 39.6152 188.845 39.4003 188.651 39.3663ZM183.311 42.7066C182.825 42.5936 182.419 42.1911 182.299 41.7054C182.258 41.5355 182.231 41.3321 182.078 41.2488C181.931 41.1687 181.737 41.2583 181.648 41.4012C181.56 41.5442 181.552 41.7219 181.558 41.8901C181.577 42.4014 181.705 42.9235 182.017 43.3285C182.328 43.7336 182.844 44.0004 183.348 43.9228C183.031 43.608 183.014 43.0403 183.311 42.7066ZM180.429 43.3285C180.74 42.9235 180.869 42.4014 180.887 41.8901C180.893 41.7219 180.886 41.5442 180.797 41.4012C180.709 41.2583 180.515 41.1687 180.367 41.2488C180.214 41.3321 180.188 41.5355 180.146 41.7054C180.027 42.1911 179.62 42.5936 179.135 42.7066C179.431 43.0403 179.414 43.608 179.097 43.9228C179.601 44.0004 180.118 43.7336 180.429 43.3285ZM182.097 44.0883C181.608 43.9116 181.211 43.4972 181.054 43C180.936 43.5315 180.492 43.9757 179.962 44.0914C179.779 44.1315 179.56 44.1527 179.465 44.3153C179.381 44.4591 179.45 44.6589 179.588 44.7524C179.725 44.8458 179.908 44.8475 180.067 44.7967C180.225 44.7459 180.363 44.649 180.499 44.5534C180.497 44.778 180.691 44.9868 180.914 44.9994C181.138 45.012 181.354 44.8264 181.376 44.6028C181.53 44.7266 181.686 44.8522 181.869 44.925C182.052 44.9979 182.269 45.0113 182.44 44.913C182.611 44.8147 182.711 44.5856 182.626 44.4073C182.535 44.2155 182.296 44.1603 182.097 44.0883ZM178.191 43.2564C177.973 43.3332 177.739 43.4331 177.52 43.3625C177.24 43.2728 177.113 42.9533 177.026 42.6706C176.938 42.3879 176.82 42.0675 176.542 41.969C176.321 41.8894 176.066 41.993 175.911 42.1716C175.971 42.8488 176.148 43.6445 176.483 44.578C176.483 44.578 177.631 44.5236 178.775 44.101C178.859 44.0061 178.929 43.8995 178.966 43.7779C179.017 43.6069 178.985 43.4016 178.851 43.2848C178.676 43.1337 178.409 43.1796 178.191 43.2564ZM176.957 41.6141C176.878 41.0224 177.09 40.3982 177.514 39.9791C177.603 39.8908 177.71 39.7677 177.65 39.6573C177.602 39.5691 177.48 39.5619 177.38 39.574C176.847 39.6387 176.348 39.9423 176.044 40.3862C175.739 40.8301 175.635 41.407 175.765 41.9299C176.038 41.5816 176.549 41.4462 176.957 41.6141ZM174.016 38.3192C174.193 38.2998 174.369 38.1904 174.423 38.0206C174.494 37.7998 174.348 37.5711 174.192 37.3996C174.037 37.2281 173.854 37.0506 173.834 36.8199C173.807 36.526 174.05 36.2847 174.276 36.0934C174.501 35.9021 174.748 35.6679 174.731 35.3727C174.717 35.1371 174.523 34.9414 174.299 34.8676C173.701 35.1875 173.041 35.6615 172.315 36.3349C172.315 36.3349 172.812 37.375 173.645 38.2688C173.765 38.3095 173.89 38.3327 174.016 38.3192ZM188.164 34.1294C188.289 34.2704 188.414 34.4519 188.602 34.4556C188.768 34.4589 188.908 34.3005 188.922 34.1343C188.936 33.9682 188.847 33.8067 188.726 33.693C188.604 33.5794 188.452 33.5054 188.303 33.433C188.499 33.3254 188.585 33.0531 188.487 32.8514C188.388 32.6496 188.121 32.551 187.916 32.6408C187.949 32.4458 187.981 32.2473 187.955 32.0514C187.929 31.8555 187.834 31.6591 187.665 31.5576C187.496 31.4562 187.248 31.4806 187.135 31.6423C187.013 31.8162 187.082 32.0519 187.117 32.2616C187.203 32.7761 187.037 33.3269 186.682 33.708C187.201 33.5506 187.804 33.722 188.164 34.1294ZM185.236 32.3952C185.383 32.8731 185.241 33.4286 184.884 33.7768C184.759 33.8986 184.597 34.0238 184.602 34.1987C184.608 34.3669 184.783 34.4902 184.95 34.4948C185.117 34.4995 185.274 34.4165 185.416 34.3266C185.846 34.0531 186.231 33.6788 186.423 33.2047C186.614 32.7307 186.584 32.1481 186.263 31.7503C186.152 32.1835 185.672 32.4845 185.236 32.3952ZM183.513 41.1777C183.376 41.1054 183.252 40.9984 183.099 40.9744C182.869 40.9382 182.64 41.1214 182.58 41.3477C182.52 41.5739 182.604 41.8211 182.753 42.001C182.902 42.1808 183.11 42.3024 183.322 42.3995C183.782 42.6099 184.286 42.7218 184.792 42.7256C185.236 42.0837 185.213 41.1523 184.736 40.5339C184.646 40.4163 184.535 40.3058 184.393 40.2619C184.252 40.218 184.075 40.2599 184.002 40.3893C183.87 40.6243 184.131 40.9757 183.944 41.1695C183.836 41.2808 183.649 41.2501 183.513 41.1777ZM185.95 39.3603C186.426 39.5425 186.954 39.6273 187.447 39.4971C187.94 39.367 188.386 38.9933 188.511 38.4973C188.099 38.6674 187.572 38.4623 187.381 38.0579C187.088 38.4627 186.561 38.6819 186.069 38.603C185.897 38.5755 185.7 38.5205 185.564 38.6298C185.433 38.7348 185.439 38.9493 185.536 39.0867C185.633 39.2241 185.793 39.3003 185.95 39.3603ZM186.058 37.2753C185.938 37.3735 185.792 37.4467 185.71 37.5785C185.587 37.7775 185.666 38.0604 185.85 38.2043C186.034 38.3482 186.293 38.3668 186.517 38.2988C186.74 38.2307 186.932 38.0863 187.104 37.9278C187.476 37.5845 187.775 37.1617 187.976 36.6957C187.56 36.0342 186.697 35.6931 185.944 35.893C185.801 35.931 185.656 35.9906 185.561 36.1043C185.465 36.218 185.435 36.3974 185.525 36.5152C185.689 36.7293 186.113 36.6247 186.218 36.8733C186.278 37.0161 186.177 37.1772 186.058 37.2753ZM188.8 38.2688C189.634 37.375 190.131 36.3349 190.131 36.3349C189.405 35.6615 188.744 35.1875 188.147 34.8676C187.923 34.9414 187.728 35.1371 187.715 35.3727C187.697 35.6679 187.945 35.9021 188.17 36.0934C188.395 36.2847 188.639 36.526 188.612 36.8199C188.591 37.0506 188.408 37.2281 188.253 37.3996C188.098 37.5711 187.952 37.7998 188.022 38.0206C188.077 38.1904 188.253 38.2998 188.429 38.3192C188.555 38.3327 188.68 38.3095 188.8 38.2688ZM186.457 34.295C185.932 34.4035 185.459 34.7471 185.192 35.2146C185.142 35.3018 185.101 35.4176 185.163 35.4964C185.241 35.5951 185.396 35.5441 185.511 35.496C186.061 35.2677 186.716 35.3144 187.228 35.6185C187.233 35.1757 187.556 34.7555 187.982 34.6392C187.553 34.3152 186.983 34.1866 186.457 34.295ZM181.616 35.4035C181.49 35.3696 181.359 35.3512 181.223 35.3512C180.39 35.3512 179.714 36.0288 179.714 36.8658C179.714 37.5765 180.203 38.1726 180.861 38.3352C180.987 38.369 181.118 38.3874 181.254 38.3874C182.087 38.3874 182.762 37.7098 182.762 36.8739C182.762 36.1623 182.274 35.5661 181.616 35.4035ZM179.246 31.0564C179.795 31.2855 180.225 31.7841 180.373 32.3626C180.404 32.4845 180.456 32.6393 180.581 32.6427C180.681 32.6454 180.749 32.5431 180.788 32.4507C181.001 31.9559 180.991 31.3698 180.763 30.8822C180.534 30.3947 180.09 30.0139 179.575 29.8633C179.737 30.2751 179.596 30.787 179.246 31.0564ZM177.939 31.1009C177.688 31.5412 177.53 32.0351 177.48 32.5401C177.456 32.7732 177.456 33.0143 177.536 33.2345C177.615 33.4546 177.786 33.6519 178.011 33.7137C178.236 33.7753 178.508 33.6692 178.593 33.4511C178.65 33.3066 178.62 33.1449 178.627 32.9899C178.633 32.835 178.701 32.6572 178.851 32.62C179.112 32.5552 179.283 32.9588 179.552 32.9622C179.7 32.964 179.825 32.8322 179.858 32.6874C179.892 32.5425 179.852 32.3906 179.797 32.2528C179.505 31.5278 178.716 31.0383 177.939 31.1009ZM183.852 33.4511C183.937 33.6692 184.21 33.7753 184.435 33.7137C184.66 33.6519 184.83 33.4546 184.91 33.2345C184.989 33.0143 184.989 32.7732 184.966 32.5401C184.915 32.0351 184.758 31.5412 184.506 31.1009C183.73 31.0383 182.941 31.5278 182.649 32.2528C182.593 32.3906 182.554 32.5425 182.587 32.6874C182.621 32.8322 182.746 32.964 182.894 32.9622C183.163 32.9588 183.333 32.5552 183.594 32.62C183.744 32.6572 183.812 32.835 183.819 32.9899C183.825 33.1449 183.796 33.3066 183.852 33.4511ZM181.683 30.8822C181.454 31.3698 181.444 31.9559 181.657 32.4507C181.697 32.5431 181.764 32.6454 181.865 32.6427C181.99 32.6393 182.042 32.4845 182.073 32.3626C182.22 31.7841 182.65 31.2855 183.199 31.0564C182.849 30.787 182.708 30.2751 182.871 29.8633C182.355 30.0139 181.911 30.3947 181.683 30.8822ZM184.143 30.5837C184.43 30.5174 184.769 30.4661 184.987 30.6638C185.158 30.8188 185.19 31.0721 185.234 31.2998C185.277 31.5275 185.372 31.7818 185.59 31.8577C185.758 31.9154 185.951 31.8396 186.072 31.7092C186.159 31.6162 186.215 31.5018 186.254 31.381C186.042 30.1754 185.51 29.1525 185.51 29.1525C184.539 29.3321 183.765 29.5789 183.152 29.8675C183.076 30.092 183.116 30.3656 183.295 30.5174C183.52 30.7087 183.855 30.6499 184.143 30.5837ZM178.443 40.3893C178.37 40.2599 178.194 40.218 178.052 40.2619C177.911 40.3058 177.8 40.4163 177.709 40.5339C177.233 41.1523 177.209 42.0837 177.654 42.7256C178.159 42.7218 178.664 42.6099 179.124 42.3995C179.336 42.3024 179.543 42.1808 179.692 42.001C179.842 41.8211 179.926 41.5739 179.866 41.3477C179.805 41.1214 179.577 40.9382 179.346 40.9744C179.194 40.9984 179.069 41.1054 178.933 41.1777C178.796 41.2501 178.609 41.2808 178.501 41.1695C178.314 40.9757 178.575 40.6243 178.443 40.3893ZM181.223 39.6448C179.694 39.6448 178.455 38.3996 178.455 36.8658C178.455 35.3309 179.694 34.0868 181.223 34.0868C182.751 34.0868 183.99 35.3309 183.99 36.8658C183.99 38.3996 182.751 39.6448 181.223 39.6448ZM181.223 33.1953C179.205 33.1953 177.569 34.8381 177.569 36.8658C177.569 38.8923 179.205 40.5351 181.223 40.5351C183.241 40.5351 184.877 38.8923 184.877 36.8658C184.877 34.8381 183.241 33.1953 181.223 33.1953Z" fill="#090909"/>
<path d="M160.048 26.1526V19.1396H162.756C162.822 19.1396 162.902 19.1429 162.994 19.1493C163.086 19.1526 163.175 19.1623 163.26 19.1786C163.631 19.237 163.942 19.3669 164.193 19.5682C164.447 19.7695 164.637 20.0244 164.764 20.3328C164.891 20.638 164.954 20.9773 164.954 21.3506C164.954 21.8929 164.816 22.3636 164.54 22.763C164.264 23.1591 163.86 23.4075 163.327 23.5081L163.003 23.5617H160.895V26.1526H160.048ZM164.126 26.1526L162.775 23.2987L163.612 23.0357L165.097 26.1526H164.126ZM160.895 22.7386H162.727C162.788 22.7386 162.856 22.7354 162.932 22.7289C163.011 22.7224 163.086 22.711 163.156 22.6948C163.374 22.6429 163.552 22.5487 163.688 22.4123C163.828 22.2727 163.929 22.1104 163.993 21.9253C164.056 21.737 164.088 21.5455 164.088 21.3506C164.088 21.1558 164.056 20.9659 163.993 20.7808C163.929 20.5925 163.828 20.4286 163.688 20.289C163.552 20.1493 163.374 20.0552 163.156 20.0065C163.086 19.987 163.011 19.9756 162.932 19.9724C162.856 19.9659 162.788 19.9627 162.727 19.9627H160.895V22.7386Z" fill="#090909"/>
<path d="M167.953 26.1526V19.1396H172.283V19.9627H168.8V22.1591H171.712V22.9821H168.8V25.3295H172.283V26.1526H167.953Z" fill="#090909"/>
<path d="M177.721 26.2987C177.251 26.2987 176.823 26.2143 176.436 26.0455C176.049 25.8766 175.716 25.6347 175.437 25.3198C175.157 25.0016 174.942 24.6185 174.79 24.1705C174.64 23.7192 174.566 23.211 174.566 22.6461C174.566 21.8993 174.696 21.2532 174.956 20.7078C175.216 20.1623 175.583 19.7419 176.055 19.4464C176.528 19.1477 177.083 18.9984 177.721 18.9984C178.488 18.9984 179.107 19.1818 179.576 19.5487C180.046 19.9123 180.369 20.4107 180.547 21.0438L179.69 21.224C179.548 20.7987 179.313 20.4594 178.986 20.2062C178.659 19.9529 178.252 19.8263 177.763 19.8263C177.253 19.823 176.828 19.9399 176.488 20.1769C176.152 20.4107 175.898 20.7403 175.727 21.1656C175.556 21.5909 175.468 22.0844 175.465 22.6461C175.462 23.2045 175.546 23.6948 175.717 24.1169C175.889 24.539 176.144 24.8701 176.483 25.1104C176.826 25.3474 177.253 25.4675 177.763 25.4708C178.204 25.474 178.575 25.388 178.877 25.2127C179.178 25.0373 179.411 24.7841 179.576 24.4529C179.741 24.1218 179.841 23.724 179.876 23.2597H178.42V22.5438H180.77C180.78 22.6088 180.785 22.6867 180.785 22.7776C180.788 22.8653 180.79 22.9253 180.79 22.9578C180.79 23.5974 180.672 24.1705 180.437 24.6769C180.206 25.1802 179.862 25.5763 179.405 25.8653C178.951 26.1542 178.39 26.2987 177.721 26.2987Z" fill="#090909"/>
<path d="M183.643 26.1526V19.1396H184.49V26.1526H183.643Z" fill="#090909"/>
<path d="M190.543 26.2987C189.861 26.2987 189.282 26.1445 188.806 25.836C188.33 25.5276 187.967 25.099 187.716 24.5503C187.469 24.0016 187.345 23.3669 187.345 22.6461C187.345 21.9253 187.469 21.2906 187.716 20.7419C187.967 20.1932 188.33 19.7646 188.806 19.4562C189.282 19.1477 189.861 18.9935 190.543 18.9935C191.228 18.9935 191.808 19.1477 192.284 19.4562C192.76 19.7646 193.121 20.1932 193.369 20.7419C193.616 21.2906 193.74 21.9253 193.74 22.6461C193.74 23.3669 193.616 24.0016 193.369 24.5503C193.121 25.099 192.76 25.5276 192.284 25.836C191.808 26.1445 191.228 26.2987 190.543 26.2987ZM190.543 25.4708C191.053 25.474 191.478 25.3571 191.818 25.1201C192.16 24.8799 192.416 24.5471 192.584 24.1217C192.755 23.6964 192.841 23.2045 192.841 22.6461C192.841 22.0844 192.755 21.5925 192.584 21.1705C192.416 20.7484 192.16 20.4188 191.818 20.1818C191.478 19.9448 191.053 19.8247 190.543 19.8214C190.032 19.8182 189.607 19.9351 189.267 20.1721C188.931 20.4091 188.677 20.7403 188.506 21.1656C188.335 21.5909 188.248 22.0844 188.244 22.6461C188.241 23.2045 188.325 23.6948 188.497 24.1169C188.668 24.539 188.923 24.8701 189.263 25.1104C189.605 25.3474 190.032 25.4675 190.543 25.4708Z" fill="#090909"/>
<path d="M196.504 26.1526V19.1396H197.36L200.934 24.6185V19.1396H201.79V26.1526H200.934L197.36 20.6688V26.1526H196.504Z" fill="#090909"/>
<path d="M204.453 26.1526L206.746 19.1396H207.926L210.22 26.1526H209.339L207.193 19.6461H207.46L205.333 26.1526H204.453ZM205.557 24.5114V23.698H209.116V24.5114H205.557Z" fill="#090909"/>
<path d="M212.975 26.1526V19.1396H213.822V25.3295H217V26.1526H212.975Z" fill="#090909"/>
<path d="M160.048 15.6214V8.0474H163.107C163.628 8.0474 164.055 8.15084 164.387 8.35773C164.723 8.5611 164.971 8.82234 165.132 9.14143C165.296 9.46052 165.378 9.79013 165.378 10.1303C165.378 10.5475 165.276 10.9017 165.073 11.1927C164.873 11.4838 164.599 11.6801 164.253 11.7818V11.5188C164.739 11.6275 165.107 11.8537 165.356 12.1973C165.61 12.541 165.737 12.9319 165.737 13.3703C165.737 13.8191 165.649 14.2118 165.474 14.5484C165.299 14.8851 165.039 15.1481 164.692 15.3374C164.35 15.5268 163.925 15.6214 163.418 15.6214H160.048ZM161.355 14.4275H163.257C163.482 14.4275 163.684 14.3836 163.862 14.296C164.041 14.2048 164.18 14.0786 164.28 13.9173C164.383 13.7525 164.435 13.5579 164.435 13.3334C164.435 13.1301 164.391 12.9477 164.301 12.7864C164.212 12.6251 164.082 12.4971 163.91 12.4025C163.739 12.3043 163.534 12.2552 163.294 12.2552H161.355V14.4275ZM161.355 11.0718H163.091C163.276 11.0718 163.443 11.0367 163.589 10.9666C163.735 10.8964 163.851 10.793 163.937 10.6562C164.023 10.5195 164.066 10.3512 164.066 10.1513C164.066 9.88831 163.98 9.66916 163.809 9.49383C163.637 9.31851 163.398 9.23084 163.091 9.23084H161.355V11.0718Z" fill="#090909"/>
<path d="M167.396 15.6214L169.827 8.0474H171.718L174.15 15.6214H172.822L170.615 8.82584H170.904L168.724 15.6214H167.396ZM168.751 13.9804V12.7969H172.8V13.9804H168.751Z" fill="#090909"/>
<path d="M176.243 15.6214V8.0474H177.55L181.128 13.386V8.0474H182.435V15.6214H181.128L177.55 10.2828V15.6214H176.243Z" fill="#090909"/>
<path d="M188.239 15.7792C187.739 15.7792 187.269 15.6933 186.83 15.5215C186.394 15.3462 186.01 15.0902 185.678 14.7536C185.35 14.4169 185.093 14.0049 184.907 13.5175C184.721 13.0266 184.629 12.4656 184.629 11.8344C184.629 11.0069 184.786 10.3003 185.1 9.71474C185.414 9.12565 185.844 8.67506 186.391 8.36299C186.937 8.0474 187.553 7.88961 188.239 7.88961C189.189 7.88961 189.94 8.10701 190.494 8.54182C191.051 8.97312 191.427 9.57974 191.624 10.3617L190.306 10.5668C190.16 10.118 189.921 9.76032 189.588 9.49383C189.256 9.22383 188.833 9.08883 188.319 9.08883C187.801 9.08182 187.371 9.19227 187.028 9.42019C186.685 9.64812 186.426 9.96896 186.252 10.3827C186.08 10.7965 185.994 11.2804 185.994 11.8344C185.994 12.3884 186.08 12.8706 186.252 13.2808C186.423 13.6876 186.68 14.0049 187.023 14.2329C187.369 14.4608 187.801 14.5782 188.319 14.5853C188.708 14.5888 189.049 14.5204 189.342 14.3801C189.635 14.2364 189.874 14.0207 190.06 13.7332C190.245 13.4421 190.37 13.0792 190.435 12.6444H189.074V11.6503H191.806C191.813 11.7064 191.818 11.7888 191.822 11.8975C191.826 12.0062 191.827 12.0711 191.827 12.0921C191.827 12.8075 191.683 13.4439 191.393 14.0014C191.108 14.5555 190.697 14.9903 190.162 15.3058C189.626 15.6214 188.985 15.7792 188.239 15.7792Z" fill="#090909"/>
<path d="M194.028 15.6214V8.0474H195.319V11.5609L198.399 8.0474H199.984L196.669 11.7608L200.209 15.6214H198.57L195.319 12.0869V15.6214H194.028Z" fill="#090909"/>
<path d="M204.932 15.7792C204.161 15.7792 203.5 15.6144 202.95 15.2848C202.4 14.9517 201.977 14.4888 201.681 13.8962C201.388 13.3036 201.242 12.6164 201.242 11.8344C201.242 11.0525 201.388 10.3652 201.681 9.7726C201.977 9.18 202.4 8.7189 202.95 8.38929C203.5 8.05617 204.161 7.88961 204.932 7.88961C205.703 7.88961 206.364 8.05617 206.914 8.38929C207.467 8.7189 207.891 9.18 208.183 9.7726C208.48 10.3652 208.628 11.0525 208.628 11.8344C208.628 12.6164 208.48 13.3036 208.183 13.8962C207.891 14.4888 207.467 14.9517 206.914 15.2848C206.364 15.6144 205.703 15.7792 204.932 15.7792ZM204.932 14.5853C205.45 14.5888 205.88 14.4766 206.223 14.2486C206.569 14.0207 206.828 13.6999 207 13.2861C207.175 12.8723 207.262 12.3884 207.262 11.8344C207.262 11.2804 207.175 10.8 207 10.3932C206.828 9.98299 206.569 9.6639 206.223 9.43597C205.88 9.20805 205.45 9.09058 204.932 9.08357C204.414 9.08006 203.984 9.19227 203.641 9.42019C203.298 9.64812 203.04 9.96896 202.865 10.3827C202.693 10.7965 202.608 11.2804 202.608 11.8344C202.608 12.3884 202.693 12.8706 202.865 13.2808C203.036 13.6876 203.293 14.0049 203.636 14.2329C203.982 14.4608 204.414 14.5782 204.932 14.5853Z" fill="#090909"/>
<path d="M210.819 15.6214V8.0474H212.11V11.5609L215.19 8.0474H216.775L213.46 11.7608L217 15.6214H215.361L212.11 12.0869V15.6214H210.819Z" fill="#090909"/>
<path d="M160.048 45V43.0369C161.037 41.9171 161.88 40.9356 162.578 40.0921C163.276 39.2487 163.85 38.4925 164.301 37.8236C164.752 37.1547 165.079 36.5221 165.282 35.9259C165.5 35.3297 165.609 34.7189 165.609 34.0937C165.609 33.0612 165.406 32.3123 164.999 31.8469C164.592 31.3816 164.032 31.1489 163.32 31.1489H160.267V29.9492C160.601 29.8329 161.073 29.7311 161.684 29.6439C162.309 29.5566 163 29.513 163.756 29.513C165.224 29.513 166.336 29.8983 167.092 30.6691C167.848 31.4252 168.226 32.5668 168.226 34.0937C168.226 34.7771 168.081 35.4751 167.79 36.1877C167.499 36.9002 167.099 37.6346 166.591 38.3908C166.082 39.1469 165.493 39.9322 164.824 40.7465C164.155 41.5463 163.436 42.3825 162.665 43.255H168.117V45H160.048Z" fill="#090909"/>
<path d="M194.219 45V43.0369C195.208 41.9171 196.051 40.9356 196.749 40.0921C197.447 39.2487 198.021 38.4925 198.472 37.8236C198.922 37.1547 199.25 36.5221 199.453 35.9259C199.671 35.3297 199.78 34.7189 199.78 34.0937C199.78 33.0612 199.577 32.3123 199.17 31.8469C198.763 31.3816 198.203 31.1489 197.49 31.1489H194.437V29.9492C194.772 29.8329 195.244 29.7311 195.855 29.6439C196.48 29.5566 197.171 29.513 197.927 29.513C199.395 29.513 200.507 29.8983 201.263 30.6691C202.019 31.4252 202.397 32.5668 202.397 34.0937C202.397 34.7771 202.252 35.4751 201.961 36.1877C201.67 36.9002 201.27 37.6346 200.762 38.3908C200.253 39.1469 199.664 39.9322 198.995 40.7465C198.326 41.5463 197.607 42.3825 196.836 43.255H202.288V45H194.219Z" fill="#090909"/>
<path d="M212.05 45C211.288 45 210.591 44.9491 209.96 44.8473C209.344 44.7601 208.868 44.6655 208.53 44.5637V43.364H211.61C212.549 43.364 213.238 43.1314 213.678 42.666C214.133 42.2007 214.36 41.4518 214.36 40.4193C214.36 39.3287 214.133 38.5507 213.678 38.0854C213.238 37.6055 212.549 37.3656 211.61 37.3656H208.75V29.513H216.45V31.1489H211.39V35.7296H212.05C213.751 35.7296 214.998 36.115 215.79 36.8857C216.597 37.6564 217 38.8343 217 40.4193C217 41.9462 216.597 43.095 215.79 43.8657C214.998 44.6219 213.751 45 212.05 45Z" fill="#090909"/>
</svg>
